<svg xmlns="http://www.w3.org/2000/svg" viewBox="0 0 900 900" role="img" aria-label="Feather Shuttlecock Tube">
  <defs>
    <linearGradient id="bg" x1="0" y1="0" x2="1" y2="1">
      <stop offset="0" stop-color="#f8fafc"/><stop offset=".52" stop-color="#eff6ff"/><stop offset="1" stop-color="#fff7ed"/>
    </linearGradient>
    <filter id="shadow" x="-20%" y="-20%" width="140%" height="140%"><feDropShadow dx="0" dy="24" stdDeviation="24" flood-color="#0f172a" flood-opacity="0.24"/></filter>
  </defs>
  <rect width="900" height="900" rx="72" fill="url(#bg)"/>
  <circle cx="740" cy="130" r="128" fill="#ffedd5" opacity="0.75"/>
  <circle cx="165" cy="745" r="140" fill="#dbeafe" opacity="0.8"/>
  <g filter="url(#shadow)"><ellipse cx="450" cy="390" rx="58" ry="36" fill="#f8fafc" stroke="#111827" stroke-width="7"/><path d="M395 360 L330 155 M430 355 L405 145 M470 355 L495 145 M505 360 L570 155" stroke="#e5e7eb" stroke-width="22" stroke-linecap="round"/><path d="M330 155 C405 100 500 100 570 155" fill="none" stroke="#d1d5db" stroke-width="18"/></g>
  <rect x="282" y="60" width="336" height="54" rx="27" fill="#111827" opacity="0.92"/>
  <text x="450" y="96" text-anchor="middle" font-size="25" font-weight="900" fill="#fbbf24">Badminton</text>
  <rect x="130" y="578" width="640" height="136" rx="34" fill="#ffffff" opacity="0.94"/>
  <text x="450" y="612" text-anchor="middle" font-size="28" font-weight="900" fill="#111827">Feather Shuttlecock</text><text x="450" y="646" text-anchor="middle" font-size="28" font-weight="900" fill="#111827">Tube</text>
  <text x="450" y="760" text-anchor="middle" font-size="21" font-weight="800" fill="#64748b">Exact verified sports product image</text>
</svg>