<svg xmlns="http://www.w3.org/2000/svg" width="600" height="420" viewBox="0 0 600 420" role="img" aria-label="GK GLOVES">
      <defs>
        <linearGradient id="bg" x1="0" x2="1" y1="0" y2="1">
          <stop offset="0" stop-color="#ffffff"/>
          <stop offset="1" stop-color="#e2e8f0"/>
        </linearGradient>
      </defs>
      <rect width="600" height="420" rx="44" fill="url(#bg)"/>
      <circle cx="95" cy="85" r="58" fill="#059669" opacity=".13"/>
      <circle cx="500" cy="330" r="72" fill="#059669" opacity=".12"/>
      
        <path d="M210 125 C230 95 262 125 252 170 L245 270 C242 325 178 325 175 270 L176 165 C176 125 198 112 210 125Z" fill="#059669"/>
        <path d="M310 125 C330 95 362 125 352 170 L345 270 C342 325 278 325 275 270 L276 165 C276 125 298 112 310 125Z" fill="#111827" opacity=".9"/>
        <rect x="174" y="274" width="74" height="48" rx="16" fill="#a7f3d0"/>
        <rect x="274" y="274" width="74" height="48" rx="16" fill="#a7f3d0"/>
      <rect x="120" y="352" width="360" height="42" rx="21" fill="#0f172a" opacity=".92"/>
      <text x="300" y="380" text-anchor="middle" font-family="Arial, sans-serif" font-size="22" font-weight="800" fill="#ffffff">GK GLOVES</text>
    </svg>